<svg preserveAspectRatio="none" width="100%" height="100%" overflow="visible" style="display: block;" viewBox="0 0 30.3169 30.3169" fill="none" xmlns="http://www.w3.org/2000/svg">
<g id="Icon">
<path id="Vector" d="M26.3239 5.82342C25.6787 5.17793 24.9127 4.66587 24.0696 4.31652C23.2264 3.96717 22.3227 3.78735 21.4101 3.78735C20.4974 3.78735 19.5937 3.96717 18.7505 4.31652C17.9074 4.66587 17.1414 5.17793 16.4962 5.82342L15.1572 7.16242L13.8182 5.82342C12.5149 4.52019 10.7474 3.78804 8.90433 3.78804C7.06127 3.78804 5.2937 4.52019 3.99047 5.82342C2.68722 7.12666 1.95508 8.89424 1.95508 10.7373C1.95508 12.5803 2.68722 14.3479 3.99047 15.6512L5.32946 16.9901L15.1572 26.8179L24.9849 16.9901L26.3239 15.6512C26.9694 15.0059 27.4814 14.2399 27.8308 13.3967C28.1802 12.5536 28.3599 11.6499 28.3599 10.7373C28.3599 9.82465 28.1802 8.92094 27.8308 8.07779C27.4814 7.23465 26.9694 6.46861 26.3239 5.82342Z" stroke="var(--stroke-0, #6347D1)" stroke-width="2.52641" stroke-linecap="round" stroke-linejoin="round"/>
</g>
</svg>
