<svg preserveAspectRatio="none" width="100%" height="100%" overflow="visible" style="display: block;" viewBox="0 0 30.3169 30.3169" fill="none" xmlns="http://www.w3.org/2000/svg">
<g id="Icon" clip-path="url(#clip0_7_807)">
<path id="Vector" d="M21.474 26.5273V24.0009C21.474 22.6608 20.9416 21.3756 19.994 20.4281C19.0465 19.4804 17.7613 18.9481 16.4211 18.9481H6.31551C4.97542 18.9481 3.69022 19.4804 2.74263 20.4281C1.79505 21.3756 1.2627 22.6608 1.2627 24.0009V26.5273" stroke="var(--stroke-0, #6347D1)" stroke-width="2.52641" stroke-linecap="round" stroke-linejoin="round"/>
<path id="Vector_2" d="M11.3692 13.8953C14.1598 13.8953 16.422 11.6331 16.422 8.84249C16.422 6.05189 14.1598 3.78967 11.3692 3.78967C8.57863 3.78967 6.31641 6.05189 6.31641 8.84249C6.31641 11.6331 8.57863 13.8953 11.3692 13.8953Z" stroke="var(--stroke-0, #6347D1)" stroke-width="2.52641" stroke-linecap="round" stroke-linejoin="round"/>
<path id="Vector_3" d="M29.0543 26.5272V24.0008C29.0534 22.8812 28.6809 21.7937 27.9949 20.9088C27.309 20.0241 26.3486 19.3921 25.2646 19.1122" stroke="var(--stroke-0, #6347D1)" stroke-width="2.52641" stroke-linecap="round" stroke-linejoin="round"/>
<path id="Vector_4" d="M20.2119 3.95374C21.2988 4.23203 22.2621 4.86414 22.95 5.75042C23.638 6.63668 24.0114 7.72671 24.0114 8.84865C24.0114 9.9706 23.638 11.0606 22.95 11.9469C22.2621 12.8332 21.2988 13.4653 20.2119 13.7436" stroke="var(--stroke-0, #6347D1)" stroke-width="2.52641" stroke-linecap="round" stroke-linejoin="round"/>
</g>
<defs>
<clipPath id="clip0_7_807">
<rect width="30.3169" height="30.3169" fill="white"/>
</clipPath>
</defs>
</svg>
