<svg width="1440" height="1185" viewBox="0 0 1440 1185" fill="none" xmlns="http://www.w3.org/2000/svg">
<path opacity="0.3" d="M890.316 -310.771L-439.924 457.244M956.828 -272.37L-373.412 495.645M1023.34 -233.969L-306.9 534.046M1089.85 -195.568L-240.388 572.446M1156.36 -157.168L-173.876 610.847L-240.388 649.248M1222.88 -118.767L-107.364 649.248L-240.388 726.049M1289.39 -80.3661L-40.8521 687.649L-173.876 764.45M1355.9 -41.9654L25.6599 726.049L-40.8521 764.45M1422.41 -3.56464L92.1719 764.45M1488.92 34.8361L158.684 802.851M1555.44 73.2368L225.196 841.252M1621.95 111.638L291.708 879.652M1688.46 150.038L358.22 918.053M424.732 956.454L1754.97 188.439L1792.3 166.329M1821.48 226.84L491.244 994.855M1888 265.241L557.756 1033.26M1954.51 303.641L624.268 1071.66M2021.02 342.042L690.78 1110.06M2087.53 380.443L757.292 1148.46M757.292 -310.771L2087.53 457.244M690.78 -272.37L2021.02 495.645M624.268 -233.969L1954.51 534.046M557.756 -195.568L1888 572.446M491.244 -157.168L1821.48 610.847M424.732 -118.767L1754.97 649.248M358.22 -80.3661L1688.46 687.649M291.708 -41.9654L1621.95 726.049M225.196 -3.56465L1555.44 764.45M158.684 34.8361L1488.92 802.851M92.1718 73.2368L1422.41 841.252M25.6597 111.638L1355.9 879.652M-40.8523 150.038L1289.39 918.053M1222.88 956.454L-107.364 188.439L-152.196 162.329M-173.876 226.84L1156.36 994.855M-240.388 265.241L1089.85 1033.26M-306.9 303.641L1023.34 1071.66M-373.412 342.042L956.828 1110.06M-439.924 380.443L890.316 1148.46M-173.876 841.252L-107.364 802.851M-240.388 649.248L-306.9 687.649L-107.364 802.851M-240.388 649.248L-40.8521 764.45M-40.8521 764.45L-107.364 802.851M823.804 -349.171L-506.436 418.843L816.876 1182.86C820.702 1185.07 826.906 1185.07 830.732 1182.86L2154.04 418.843L823.804 -349.171Z" stroke="#C0C6C5"/>
</svg>
